<svg xmlns="http://www.w3.org/2000/svg" viewBox="0 0 1080 615" width="1080" height="615" font-family="Segoe UI, system-ui, Arial, sans-serif">
<title>Modelo de dados da Recepção 24h</title>
<defs><marker id="ponta" viewBox="0 0 10 10" refX="9" refY="5" markerWidth="7" markerHeight="7" orient="auto-start-reverse">
<path d="M0,0 L10,5 L0,10 z" fill="#6b7a89"/></marker></defs>
<rect width="1080" height="615" fill="#ffffff"/>
<line x1="295.0" y1="85.2" x2="235.0" y2="77.8" stroke="#6b7a89" stroke-width="1.6" marker-end="url(#ponta)"/>
<line x1="510.0" y1="88.5" x2="570.0" y2="83.0" stroke="#6b7a89" stroke-width="1.6" marker-end="url(#ponta)"/>
<line x1="510.0" y1="145.8" x2="576.4" y2="175.0" stroke="#6b7a89" stroke-width="1.6" marker-end="url(#ponta)"/>
<line x1="127.5" y1="109.0" x2="127.5" y2="175.0" stroke="#6b7a89" stroke-width="1.6" marker-end="url(#ponta)"/>
<line x1="127.5" y1="264.0" x2="127.5" y2="330.0" stroke="#6b7a89" stroke-width="1.6" marker-end="url(#ponta)"/>
<line x1="208.8" y1="264.0" x2="295.0" y2="311.2" stroke="#6b7a89" stroke-width="1.6" marker-end="url(#ponta)"/>
<line x1="596.2" y1="264.0" x2="510.0" y2="311.2" stroke="#6b7a89" stroke-width="1.6" marker-end="url(#ponta)"/>
<line x1="570.0" y1="387.1" x2="510.0" y2="380.9" stroke="#6b7a89" stroke-width="1.6" marker-end="url(#ponta)"/>
<line x1="402.5" y1="440.0" x2="402.5" y2="505.0" stroke="#6b7a89" stroke-width="1.6" marker-end="url(#ponta)"/>
<line x1="509.7" y1="440.0" x2="609.3" y2="505.0" stroke="#6b7a89" stroke-width="1.6" marker-end="url(#ponta)"/>
<line x1="759.2" y1="345.0" x2="883.9" y2="264.0" stroke="#6b7a89" stroke-width="1.6" marker-end="url(#ponta)"/>
<line x1="952.5" y1="264.0" x2="952.5" y2="345.0" stroke="#6b7a89" stroke-width="1.6" marker-end="url(#ponta)"/>
<rect x="295" y="20" width="215" height="157" rx="8" fill="#ffffff" stroke="#0e6b6b" stroke-width="1.5"/>
<text x="305" y="40" font-size="13.5" font-weight="700" fill="#0e6b6b">Hotel</text>
<line x1="295" y1="49" x2="510" y2="49" stroke="#0e6b6b" stroke-width="1"/>
<text x="305" y="66" font-size="11.5" fill="#1d2733" font-weight="600">id, slug, nome, cidade</text>
<text x="305" y="83" font-size="11.5" fill="#1d2733">checkin_hora, checkout_hora</text>
<text x="305" y="100" font-size="11.5" fill="#1d2733">early/late: permite + preço</text>
<text x="305" y="117" font-size="11.5" fill="#1d2733">modo_chegada, recepção</text>
<text x="305" y="134" font-size="11.5" fill="#1d2733">link_fnrh</text>
<text x="305" y="151" font-size="11.5" fill="#1d2733">politicas (json)</text>
<text x="305" y="168" font-size="11.5" fill="#1d2733">fuso</text>
<rect x="20" y="20" width="215" height="89" rx="8" fill="#ffffff" stroke="#0e6b6b" stroke-width="1.5"/>
<text x="30" y="40" font-size="13.5" font-weight="700" fill="#0e6b6b">TipoAcomodacao</text>
<line x1="20" y1="49" x2="235" y2="49" stroke="#0e6b6b" stroke-width="1"/>
<text x="30" y="66" font-size="11.5" fill="#1d2733" font-weight="600">hotel_id</text>
<text x="30" y="83" font-size="11.5" fill="#1d2733">nome, capacidade</text>
<text x="30" y="100" font-size="11.5" fill="#1d2733">tarifa_base</text>
<rect x="20" y="175" width="215" height="89" rx="8" fill="#ffffff" stroke="#0e6b6b" stroke-width="1.5"/>
<text x="30" y="195" font-size="13.5" font-weight="700" fill="#0e6b6b">Unidade</text>
<line x1="20" y1="204" x2="235" y2="204" stroke="#0e6b6b" stroke-width="1"/>
<text x="30" y="221" font-size="11.5" fill="#1d2733" font-weight="600">hotel_id, tipo_id</text>
<text x="30" y="238" font-size="11.5" fill="#1d2733">identificacao</text>
<text x="30" y="255" font-size="11.5" fill="#1d2733">ativa</text>
<rect x="20" y="330" width="215" height="89" rx="8" fill="#ffffff" stroke="#0e6b6b" stroke-width="1.5"/>
<text x="30" y="350" font-size="13.5" font-weight="700" fill="#0e6b6b">CalendarioExterno</text>
<line x1="20" y1="359" x2="235" y2="359" stroke="#0e6b6b" stroke-width="1"/>
<text x="30" y="376" font-size="11.5" fill="#1d2733" font-weight="600">hotel_id, unidade_id, canal_id</text>
<text x="30" y="393" font-size="11.5" fill="#1d2733">ical_url</text>
<text x="30" y="410" font-size="11.5" fill="#1d2733">ultima_sincronizacao</text>
<rect x="20" y="505" width="215" height="89" rx="8" fill="#fff4d6" stroke="#e0b85a" stroke-width="1.5"/>
<text x="30" y="525" font-size="13.5" font-weight="700" fill="#8a5a00">Alerta</text>
<line x1="20" y1="534" x2="235" y2="534" stroke="#e0b85a" stroke-width="1"/>
<text x="30" y="551" font-size="11.5" fill="#1d2733" font-weight="600">hotel_id</text>
<text x="30" y="568" font-size="11.5" fill="#1d2733">tipo, referencia, texto</text>
<text x="30" y="585" font-size="11.5" fill="#1d2733">resolvido, criado_em</text>
<rect x="570" y="20" width="215" height="106" rx="8" fill="#ffffff" stroke="#0e6b6b" stroke-width="1.5"/>
<text x="580" y="40" font-size="13.5" font-weight="700" fill="#0e6b6b">ItemBaseConhecimento</text>
<line x1="570" y1="49" x2="785" y2="49" stroke="#0e6b6b" stroke-width="1"/>
<text x="580" y="66" font-size="11.5" fill="#1d2733" font-weight="600">hotel_id</text>
<text x="580" y="83" font-size="11.5" fill="#1d2733">categoria, pergunta</text>
<text x="580" y="100" font-size="11.5" fill="#1d2733">palavras_chave, resposta</text>
<text x="580" y="117" font-size="11.5" fill="#1d2733">atualizado_em</text>
<rect x="570" y="175" width="215" height="89" rx="8" fill="#ffffff" stroke="#0e6b6b" stroke-width="1.5"/>
<text x="580" y="195" font-size="13.5" font-weight="700" fill="#0e6b6b">Canal</text>
<line x1="570" y1="204" x2="785" y2="204" stroke="#0e6b6b" stroke-width="1"/>
<text x="580" y="221" font-size="11.5" fill="#1d2733" font-weight="600">hotel_id</text>
<text x="580" y="238" font-size="11.5" fill="#1d2733">tipo, comissao_pct</text>
<text x="580" y="255" font-size="11.5" fill="#1d2733">anuncio_por</text>
<rect x="295" y="300" width="215" height="140" rx="8" fill="#ffffff" stroke="#0e6b6b" stroke-width="1.5"/>
<text x="305" y="320" font-size="13.5" font-weight="700" fill="#0e6b6b">Reserva</text>
<line x1="295" y1="329" x2="510" y2="329" stroke="#0e6b6b" stroke-width="1"/>
<text x="305" y="346" font-size="11.5" fill="#1d2733" font-weight="600">hotel_id, unidade_id</text>
<text x="305" y="363" font-size="11.5" fill="#1d2733" font-weight="600">hospede_id, canal_id</text>
<text x="305" y="380" font-size="11.5" fill="#1d2733">check_in, check_out</text>
<text x="305" y="397" font-size="11.5" fill="#1d2733">num_hospedes, valor_total</text>
<text x="305" y="414" font-size="11.5" fill="#1d2733">status, hora_prevista_chegada</text>
<text x="305" y="431" font-size="11.5" fill="#1d2733">origem, codigo_externo</text>
<rect x="295" y="505" width="215" height="89" rx="8" fill="#ffffff" stroke="#0e6b6b" stroke-width="1.5"/>
<text x="305" y="525" font-size="13.5" font-weight="700" fill="#0e6b6b">MensagemAgendada</text>
<line x1="295" y1="534" x2="510" y2="534" stroke="#0e6b6b" stroke-width="1"/>
<text x="305" y="551" font-size="11.5" fill="#1d2733" font-weight="600">reserva_id</text>
<text x="305" y="568" font-size="11.5" fill="#1d2733">etapa, enviar_em</text>
<text x="305" y="585" font-size="11.5" fill="#1d2733">status, meio, texto</text>
<rect x="570" y="345" width="215" height="106" rx="8" fill="#ffffff" stroke="#0e6b6b" stroke-width="1.5"/>
<text x="580" y="365" font-size="13.5" font-weight="700" fill="#0e6b6b">Hospede</text>
<line x1="570" y1="374" x2="785" y2="374" stroke="#0e6b6b" stroke-width="1"/>
<text x="580" y="391" font-size="11.5" fill="#1d2733" font-weight="600">hotel_id</text>
<text x="580" y="408" font-size="11.5" fill="#1d2733">nome, telefone, email</text>
<text x="580" y="425" font-size="11.5" fill="#1d2733">consentimento_whatsapp_em</text>
<text x="580" y="442" font-size="11.5" fill="#1d2733">(sem documento: FNRH)</text>
<rect x="570" y="505" width="215" height="89" rx="8" fill="#ffffff" stroke="#0e6b6b" stroke-width="1.5"/>
<text x="580" y="525" font-size="13.5" font-weight="700" fill="#0e6b6b">Avaliacao</text>
<line x1="570" y1="534" x2="785" y2="534" stroke="#0e6b6b" stroke-width="1"/>
<text x="580" y="551" font-size="11.5" fill="#1d2733" font-weight="600">reserva_id</text>
<text x="580" y="568" font-size="11.5" fill="#1d2733">nota, comentario</text>
<text x="580" y="585" font-size="11.5" fill="#1d2733">alerta_enviado, convite_enviado</text>
<rect x="845" y="20" width="215" height="89" rx="8" fill="#ffffff" stroke="#0e6b6b" stroke-width="1.5"/>
<text x="855" y="40" font-size="13.5" font-weight="700" fill="#0e6b6b">UsuarioEquipe</text>
<line x1="845" y1="49" x2="1060" y2="49" stroke="#0e6b6b" stroke-width="1"/>
<text x="855" y="66" font-size="11.5" fill="#1d2733" font-weight="600">hotel_id</text>
<text x="855" y="83" font-size="11.5" fill="#1d2733">nome, papel</text>
<text x="855" y="100" font-size="11.5" fill="#1d2733">contato_alerta</text>
<rect x="845" y="175" width="215" height="89" rx="8" fill="#ffffff" stroke="#0e6b6b" stroke-width="1.5"/>
<text x="855" y="195" font-size="13.5" font-weight="700" fill="#0e6b6b">Conversa</text>
<line x1="845" y1="204" x2="1060" y2="204" stroke="#0e6b6b" stroke-width="1"/>
<text x="855" y="221" font-size="11.5" fill="#1d2733" font-weight="600">hotel_id, hospede_id</text>
<text x="855" y="238" font-size="11.5" fill="#1d2733">telefone, status</text>
<text x="855" y="255" font-size="11.5" fill="#1d2733">motivo_escalonamento</text>
<rect x="845" y="345" width="215" height="72" rx="8" fill="#ffffff" stroke="#0e6b6b" stroke-width="1.5"/>
<text x="855" y="365" font-size="13.5" font-weight="700" fill="#0e6b6b">Mensagem</text>
<line x1="845" y1="374" x2="1060" y2="374" stroke="#0e6b6b" stroke-width="1"/>
<text x="855" y="391" font-size="11.5" fill="#1d2733" font-weight="600">conversa_id</text>
<text x="855" y="408" font-size="11.5" fill="#1d2733">autor, texto, criada_em</text>
<text x="283.1" y="76.7" font-size="11.5" font-weight="700" text-anchor="middle" fill="#0e6b6b">1</text>
<text x="249.5" y="72.5" font-size="11.5" font-weight="700" text-anchor="middle" fill="#0e6b6b">N</text>
<text x="524.2" y="102.3" font-size="11.5" font-weight="700" text-anchor="middle" fill="#0e6b6b">1</text>
<text x="557.8" y="99.1" font-size="11.5" font-weight="700" text-anchor="middle" fill="#0e6b6b">N</text>
<text x="520.2" y="166.3" font-size="11.5" font-weight="700" text-anchor="middle" fill="#0e6b6b">1</text>
<text x="557.3" y="182.6" font-size="11.5" font-weight="700" text-anchor="middle" fill="#0e6b6b">N</text>
<text x="116.5" y="127.5" font-size="11.5" font-weight="700" text-anchor="middle" fill="#0e6b6b">1</text>
<text x="116.5" y="164.5" font-size="11.5" font-weight="700" text-anchor="middle" fill="#0e6b6b">N</text>
<text x="116.5" y="282.5" font-size="11.5" font-weight="700" text-anchor="middle" fill="#0e6b6b">1</text>
<text x="116.5" y="319.5" font-size="11.5" font-weight="700" text-anchor="middle" fill="#0e6b6b">N</text>
<text x="222.5" y="288.0" font-size="11.5" font-weight="700" text-anchor="middle" fill="#0e6b6b">1</text>
<text x="270.8" y="314.4" font-size="11.5" font-weight="700" text-anchor="middle" fill="#0e6b6b">N</text>
<text x="571.9" y="268.7" font-size="11.5" font-weight="700" text-anchor="middle" fill="#0e6b6b">1</text>
<text x="523.7" y="295.1" font-size="11.5" font-weight="700" text-anchor="middle" fill="#0e6b6b">N</text>
<text x="557.9" y="378.8" font-size="11.5" font-weight="700" text-anchor="middle" fill="#0e6b6b">1</text>
<text x="524.3" y="375.3" font-size="11.5" font-weight="700" text-anchor="middle" fill="#0e6b6b">N</text>
<text x="391.5" y="458.3" font-size="11.5" font-weight="700" text-anchor="middle" fill="#0e6b6b">1</text>
<text x="391.5" y="494.7" font-size="11.5" font-weight="700" text-anchor="middle" fill="#0e6b6b">6</text>
<text x="525.5" y="467.4" font-size="11.5" font-weight="700" text-anchor="middle" fill="#0e6b6b">1</text>
<text x="581.5" y="504.0" font-size="11.5" font-weight="700" text-anchor="middle" fill="#0e6b6b">0..1</text>
<text x="787.0" y="344.1" font-size="11.5" font-weight="700" text-anchor="middle" fill="#0e6b6b">1</text>
<text x="868.1" y="291.4" font-size="11.5" font-weight="700" text-anchor="middle" fill="#0e6b6b">N</text>
<text x="941.5" y="285.8" font-size="11.5" font-weight="700" text-anchor="middle" fill="#0e6b6b">1</text>
<text x="941.5" y="331.2" font-size="11.5" font-weight="700" text-anchor="middle" fill="#0e6b6b">N</text>
<text x="845" y="470" font-size="11.5" fill="#52606d"><tspan x="845" dy="0">Toda tabela ligada a um hotel tem</tspan><tspan x="845" dy="16">hotel_id, e toda consulta filtra por ele</tspan><tspan x="845" dy="16">(na produção: Row Level Security).</tspan><tspan x="845" dy="22">Alerta.referencia aponta para uma</tspan><tspan x="845" dy="16">reserva ou uma conversa.</tspan></text>
</svg>
